<svg width="400" height="250" viewBox="0 0 400 250" fill="none" xmlns="http://www.w3.org/2000/svg">
  <defs>
    <linearGradient id="bg" x1="0%" y1="0%" x2="100%" y2="100%">
      <stop offset="0%" style="stop-color:#1F2937;stop-opacity:1" />
      <stop offset="100%" style="stop-color:#111827;stop-opacity:1" />
    </linearGradient>
    <linearGradient id="card" x1="0%" y1="0%" x2="100%" y2="100%">
      <stop offset="0%" style="stop-color:#FFFFFF;stop-opacity:0.9" />
      <stop offset="100%" style="stop-color:#F8FAFC;stop-opacity:0.9" />
    </linearGradient>
    <linearGradient id="ai" x1="0%" y1="0%" x2="100%" y2="100%">
      <stop offset="0%" style="stop-color:#8B5CF6;stop-opacity:1" />
      <stop offset="100%" style="stop-color:#7C3AED;stop-opacity:1" />
    </linearGradient>
  </defs>
  
  <!-- Background -->
  <rect width="400" height="250" fill="url(#bg)"/>
  
  <!-- AI Brain Network -->
  <g transform="translate(50, 30)">
    <!-- Central AI Node -->
    <circle cx="150" cy="80" r="25" fill="url(#ai)" stroke="#FFFFFF" stroke-width="3"/>
    <text x="150" y="85" text-anchor="middle" fill="white" font-family="Arial, sans-serif" font-size="12" font-weight="bold">AI</text>
    
    <!-- Connected Nodes -->
    <circle cx="80" cy="50" r="15" fill="#10B981" stroke="#FFFFFF" stroke-width="2"/>
    <text x="80" y="55" text-anchor="middle" fill="white" font-family="Arial, sans-serif" font-size="8" font-weight="bold">Planning</text>
    
    <circle cx="220" cy="50" r="15" fill="#F59E0B" stroke="#FFFFFF" stroke-width="2"/>
    <text x="220" y="55" text-anchor="middle" fill="white" font-family="Arial, sans-serif" font-size="8" font-weight="bold">Budget</text>
    
    <circle cx="80" cy="110" r="15" fill="#EF4444" stroke="#FFFFFF" stroke-width="2"/>
    <text x="80" y="115" text-anchor="middle" fill="white" font-family="Arial, sans-serif" font-size="8" font-weight="bold">Marketing</text>
    
    <circle cx="220" cy="110" r="15" fill="#3B82F6" stroke="#FFFFFF" stroke-width="2"/>
    <text x="220" y="115" text-anchor="middle" fill="white" font-family="Arial, sans-serif" font-size="8" font-weight="bold">Technique</text>
    
    <!-- Connection Lines -->
    <path d="M150 80 L80 50" stroke="#8B5CF6" stroke-width="2" opacity="0.6"/>
    <path d="M150 80 L220 50" stroke="#8B5CF6" stroke-width="2" opacity="0.6"/>
    <path d="M150 80 L80 110" stroke="#8B5CF6" stroke-width="2" opacity="0.6"/>
    <path d="M150 80 L220 110" stroke="#8B5CF6" stroke-width="2" opacity="0.6"/>
    
    <!-- Data Flow Arrows -->
    <g transform="translate(150, 80)">
      <path d="M-20 -20 L-10 -10 M-20 -20 L-10 -30" stroke="#8B5CF6" stroke-width="2" fill="none"/>
      <path d="M20 -20 L10 -10 M20 -20 L10 -30" stroke="#8B5CF6" stroke-width="2" fill="none"/>
      <path d="M-20 20 L-10 10 M-20 20 L-10 30" stroke="#8B5CF6" stroke-width="2" fill="none"/>
      <path d="M20 20 L10 10 M20 20 L10 30" stroke="#8B5CF6" stroke-width="2" fill="none"/>
    </g>
  </g>
  
  <!-- AI Features -->
  <g transform="translate(20, 160)">
    <rect x="0" y="0" width="360" height="60" fill="url(#card)" rx="8" stroke="#E2E8F0" stroke-width="1"/>
    
    <!-- Feature 1: Automation -->
    <g transform="translate(20, 15)">
      <circle cx="10" cy="10" r="8" fill="#8B5CF6"/>
      <text x="10" y="15" text-anchor="middle" fill="white" font-family="Arial, sans-serif" font-size="8" font-weight="bold">🤖</text>
      <text x="25" y="15" fill="#1F2937" font-family="Arial, sans-serif" font-size="10" font-weight="bold">Automatisation</text>
    </g>
    
    <!-- Feature 2: Analytics -->
    <g transform="translate(120, 15)">
      <circle cx="10" cy="10" r="8" fill="#10B981"/>
      <text x="10" y="15" text-anchor="middle" fill="white" font-family="Arial, sans-serif" font-size="8" font-weight="bold">📊</text>
      <text x="25" y="15" fill="#1F2937" font-family="Arial, sans-serif" font-size="10" font-weight="bold">Analytics</text>
    </g>
    
    <!-- Feature 3: Prediction -->
    <g transform="translate(220, 15)">
      <circle cx="10" cy="10" r="8" fill="#F59E0B"/>
      <text x="10" y="15" text-anchor="middle" fill="white" font-family="Arial, sans-serif" font-size="8" font-weight="bold">🔮</text>
      <text x="25" y="15" fill="#1F2937" font-family="Arial, sans-serif" font-size="10" font-weight="bold">Prédiction</text>
    </g>
    
    <!-- Feature 4: Optimization -->
    <g transform="translate(20, 35)">
      <circle cx="10" cy="10" r="8" fill="#EF4444"/>
      <text x="10" y="15" text-anchor="middle" fill="white" font-family="Arial, sans-serif" font-size="8" font-weight="bold">⚡</text>
      <text x="25" y="15" fill="#1F2937" font-family="Arial, sans-serif" font-size="10" font-weight="bold">Optimisation</text>
    </g>
    
    <!-- Feature 5: Personalization -->
    <g transform="translate(120, 35)">
      <circle cx="10" cy="10" r="8" fill="#3B82F6"/>
      <text x="10" y="15" text-anchor="middle" fill="white" font-family="Arial, sans-serif" font-size="8" font-weight="bold">🎯</text>
      <text x="25" y="15" fill="#1F2937" font-family="Arial, sans-serif" font-size="10" font-weight="bold">Personnalisation</text>
    </g>
    
    <!-- Feature 6: Learning -->
    <g transform="translate(220, 35)">
      <circle cx="10" cy="10" r="8" fill="#8B5CF6"/>
      <text x="10" y="15" text-anchor="middle" fill="white" font-family="Arial, sans-serif" font-size="8" font-weight="bold">🧠</text>
      <text x="25" y="15" fill="#1F2937" font-family="Arial, sans-serif" font-size="10" font-weight="bold">Apprentissage</text>
    </g>
  </g>
  
  <!-- AI Circuit Pattern -->
  <g transform="translate(20, 20)" opacity="0.3">
    <rect x="0" y="0" width="4" height="4" fill="#8B5CF6"/>
    <rect x="8" y="0" width="4" height="4" fill="#8B5CF6"/>
    <rect x="16" y="0" width="4" height="4" fill="#8B5CF6"/>
    <rect x="24" y="0" width="4" height="4" fill="#8B5CF6"/>
    <rect x="32" y="0" width="4" height="4" fill="#8B5CF6"/>
    <rect x="40" y="0" width="4" height="4" fill="#8B5CF6"/>
    <rect x="48" y="0" width="4" height="4" fill="#8B5CF6"/>
    <rect x="56" y="0" width="4" height="4" fill="#8B5CF6"/>
    <rect x="64" y="0" width="4" height="4" fill="#8B5CF6"/>
    <rect x="72" y="0" width="4" height="4" fill="#8B5CF6"/>
    <rect x="80" y="0" width="4" height="4" fill="#8B5CF6"/>
    <rect x="88" y="0" width="4" height="4" fill="#8B5CF6"/>
    <rect x="96" y="0" width="4" height="4" fill="#8B5CF6"/>
    <rect x="104" y="0" width="4" height="4" fill="#8B5CF6"/>
    <rect x="112" y="0" width="4" height="4" fill="#8B5CF6"/>
    <rect x="120" y="0" width="4" height="4" fill="#8B5CF6"/>
    <rect x="128" y="0" width="4" height="4" fill="#8B5CF6"/>
    <rect x="136" y="0" width="4" height="4" fill="#8B5CF6"/>
    <rect x="144" y="0" width="4" height="4" fill="#8B5CF6"/>
    <rect x="152" y="0" width="4" height="4" fill="#8B5CF6"/>
    <rect x="160" y="0" width="4" height="4" fill="#8B5CF6"/>
    <rect x="168" y="0" width="4" height="4" fill="#8B5CF6"/>
    <rect x="176" y="0" width="4" height="4" fill="#8B5CF6"/>
    <rect x="184" y="0" width="4" height="4" fill="#8B5CF6"/>
    <rect x="192" y="0" width="4" height="4" fill="#8B5CF6"/>
    <rect x="200" y="0" width="4" height="4" fill="#8B5CF6"/>
    <rect x="208" y="0" width="4" height="4" fill="#8B5CF6"/>
    <rect x="216" y="0" width="4" height="4" fill="#8B5CF6"/>
    <rect x="224" y="0" width="4" height="4" fill="#8B5CF6"/>
    <rect x="232" y="0" width="4" height="4" fill="#8B5CF6"/>
    <rect x="240" y="0" width="4" height="4" fill="#8B5CF6"/>
    <rect x="248" y="0" width="4" height="4" fill="#8B5CF6"/>
    <rect x="256" y="0" width="4" height="4" fill="#8B5CF6"/>
    <rect x="264" y="0" width="4" height="4" fill="#8B5CF6"/>
    <rect x="272" y="0" width="4" height="4" fill="#8B5CF6"/>
    <rect x="280" y="0" width="4" height="4" fill="#8B5CF6"/>
    <rect x="288" y="0" width="4" height="4" fill="#8B5CF6"/>
    <rect x="296" y="0" width="4" height="4" fill="#8B5CF6"/>
    <rect x="304" y="0" width="4" height="4" fill="#8B5CF6"/>
    <rect x="312" y="0" width="4" height="4" fill="#8B5CF6"/>
    <rect x="320" y="0" width="4" height="4" fill="#8B5CF6"/>
    <rect x="328" y="0" width="4" height="4" fill="#8B5CF6"/>
    <rect x="336" y="0" width="4" height="4" fill="#8B5CF6"/>
    <rect x="344" y="0" width="4" height="4" fill="#8B5CF6"/>
    <rect x="352" y="0" width="4" height="4" fill="#8B5CF6"/>
    <rect x="360" y="0" width="4" height="4" fill="#8B5CF6"/>
    <rect x="368" y="0" width="4" height="4" fill="#8B5CF6"/>
    <rect x="376" y="0" width="4" height="4" fill="#8B5CF6"/>
  </g>
</svg>

