<svg width="400" height="250" viewBox="0 0 400 250" fill="none" xmlns="http://www.w3.org/2000/svg">
  <defs>
    <linearGradient id="bg" x1="0%" y1="0%" x2="100%" y2="100%">
      <stop offset="0%" style="stop-color:#DC2626;stop-opacity:1" />
      <stop offset="100%" style="stop-color:#991B1B;stop-opacity:1" />
    </linearGradient>
    <linearGradient id="card" x1="0%" y1="0%" x2="100%" y2="100%">
      <stop offset="0%" style="stop-color:#FFFFFF;stop-opacity:0.9" />
      <stop offset="100%" style="stop-color:#F8FAFC;stop-opacity:0.9" />
    </linearGradient>
  </defs>
  
  <!-- Background -->
  <rect width="400" height="250" fill="url(#bg)"/>
  
  <!-- Social Media Dashboard -->
  <g transform="translate(30, 20)">
    <!-- Main Dashboard -->
    <rect x="0" y="0" width="340" height="180" fill="url(#card)" rx="12" stroke="#E2E8F0" stroke-width="2"/>
    
    <!-- Header -->
    <rect x="0" y="0" width="340" height="40" fill="#F1F5F9" rx="12"/>
    <text x="170" y="25" text-anchor="middle" fill="#991B1B" font-family="Arial, sans-serif" font-size="16" font-weight="bold">Campagne Marketing Spectacle</text>
    
    <!-- Social Media Icons -->
    <g transform="translate(20, 50)">
      <!-- Facebook -->
      <rect x="0" y="0" width="60" height="50" fill="#1877F2" rx="8"/>
      <text x="30" y="20" text-anchor="middle" fill="white" font-family="Arial, sans-serif" font-size="10" font-weight="bold">Facebook</text>
      <text x="30" y="35" text-anchor="middle" fill="white" font-family="Arial, sans-serif" font-size="8">2.5k vues</text>
      
      <!-- Instagram -->
      <rect x="80" y="0" width="60" height="50" fill="#E4405F" rx="8"/>
      <text x="110" y="20" text-anchor="middle" fill="white" font-family="Arial, sans-serif" font-size="10" font-weight="bold">Instagram</text>
      <text x="110" y="35" text-anchor="middle" fill="white" font-family="Arial, sans-serif" font-size="8">1.8k likes</text>
      
      <!-- Twitter -->
      <rect x="160" y="0" width="60" height="50" fill="#1DA1F2" rx="8"/>
      <text x="190" y="20" text-anchor="middle" fill="white" font-family="Arial, sans-serif" font-size="10" font-weight="bold">Twitter</text>
      <text x="190" y="35" text-anchor="middle" fill="white" font-family="Arial, sans-serif" font-size="8">850 RT</text>
      
      <!-- LinkedIn -->
      <rect x="240" y="0" width="60" height="50" fill="#0077B5" rx="8"/>
      <text x="270" y="20" text-anchor="middle" fill="white" font-family="Arial, sans-serif" font-size="10" font-weight="bold">LinkedIn</text>
      <text x="270" y="35" text-anchor="middle" fill="white" font-family="Arial, sans-serif" font-size="8">320 partages</text>
    </g>
    
    <!-- Engagement Chart -->
    <g transform="translate(20, 120)">
      <text x="0" y="0" fill="#991B1B" font-family="Arial, sans-serif" font-size="12" font-weight="bold">Engagement par plateforme</text>
      
      <!-- Chart bars -->
      <rect x="0" y="10" width="40" height="30" fill="#1877F2" rx="4"/>
      <text x="20" y="5" text-anchor="middle" fill="#991B1B" font-family="Arial, sans-serif" font-size="8" font-weight="bold">85%</text>
      <text x="20" y="50" text-anchor="middle" fill="#64748B" font-family="Arial, sans-serif" font-size="8">FB</text>
      
      <rect x="60" y="15" width="40" height="25" fill="#E4405F" rx="4"/>
      <text x="80" y="10" text-anchor="middle" fill="#991B1B" font-family="Arial, sans-serif" font-size="8" font-weight="bold">72%</text>
      <text x="80" y="50" text-anchor="middle" fill="#64748B" font-family="Arial, sans-serif" font-size="8">IG</text>
      
      <rect x="120" y="20" width="40" height="20" fill="#1DA1F2" rx="4"/>
      <text x="140" y="15" text-anchor="middle" fill="#991B1B" font-family="Arial, sans-serif" font-size="8" font-weight="bold">45%</text>
      <text x="140" y="50" text-anchor="middle" fill="#64748B" font-family="Arial, sans-serif" font-size="8">TW</text>
      
      <rect x="180" y="18" width="40" height="22" fill="#0077B5" rx="4"/>
      <text x="200" y="13" text-anchor="middle" fill="#991B1B" font-family="Arial, sans-serif" font-size="8" font-weight="bold">68%</text>
      <text x="200" y="50" text-anchor="middle" fill="#64748B" font-family="Arial, sans-serif" font-size="8">LI</text>
    </g>
  </g>
  
  <!-- Marketing Icons -->
  <g transform="translate(20, 20)">
    <!-- Megaphone -->
    <path d="M10 10 L25 5 L30 15 L35 5 L50 10" stroke="white" stroke-width="3" fill="none" opacity="0.8"/>
    <circle cx="10" cy="10" r="3" fill="white" opacity="0.8"/>
    
    <!-- Target -->
    <circle cx="350" cy="15" r="12" fill="white" fill-opacity="0.3"/>
    <circle cx="350" cy="15" r="8" fill="none" stroke="white" stroke-width="2"/>
    <circle cx="350" cy="15" r="4" fill="white" opacity="0.8"/>
  </g>
  
  <!-- Campaign Stats -->
  <g transform="translate(20, 200)">
    <rect x="0" y="0" width="360" height="40" fill="url(#card)" rx="8" stroke="#E2E8F0" stroke-width="1"/>
    <text x="20" y="15" fill="#991B1B" font-family="Arial, sans-serif" font-size="12" font-weight="bold">📈 +150% d'engagement</text>
    <text x="20" y="30" fill="#991B1B" font-family="Arial, sans-serif" font-size="12" font-weight="bold">🎯 5.5k personnes touchées</text>
    <text x="200" y="15" fill="#991B1B" font-family="Arial, sans-serif" font-size="12" font-weight="bold">💰 2.3k€ de ventes</text>
    <text x="200" y="30" fill="#991B1B" font-family="Arial, sans-serif" font-size="12" font-weight="bold">📱 4 plateformes actives</text>
  </g>
</svg>

